<svg width="815" height="1024" viewBox="0 0 815 1024" fill="none" xmlns="http://www.w3.org/2000/svg">
<g filter="url(#filter0_d_32_147)">
<path d="M311.456 811.648C311.456 857.387 287.563 880.256 239.776 880.256C216.565 880.256 198.133 874.453 184.48 862.848C170.827 851.243 164 834.176 164 811.648V374.4C164 297.941 184.139 240.597 224.416 202.368C264.693 163.456 332.277 144 427.168 144C497.483 144 552.437 162.773 592.032 200.32C632.309 237.867 652.448 298.283 652.448 381.568C652.448 453.931 633.333 509.227 595.104 547.456C557.557 585.685 504.309 604.8 435.36 604.8C396.448 604.8 368.117 607.872 350.368 614.016C333.301 619.477 322.379 630.059 317.6 645.76C313.504 660.779 311.456 682.965 311.456 712.32V811.648ZM306.144 486.673C305.111 496.651 317.329 503.69 325.792 498.304C333.301 492.843 343.2 488.747 355.488 486.016C368.459 482.603 385.525 480.896 406.688 480.896C436.043 480.896 459.253 478.507 476.32 473.728C493.387 468.267 505.333 458.368 512.16 444.032C519.669 429.696 523.424 408.875 523.424 381.568C523.424 345.387 518.987 319.104 510.112 302.72C501.92 285.653 489.973 274.731 474.272 269.952C459.253 264.491 440.821 261.76 418.976 261.76C379.381 261.76 351.392 268.928 335.008 283.264C319.307 297.6 311.456 322.517 311.456 358.016C311.456 383.275 310.773 410.923 309.408 440.96C308.642 457.808 307.554 473.046 306.144 486.673Z" fill="#009789"/>
<path d="M427.168 139C498.38 139 554.704 158.032 595.473 196.691H595.472C637.165 235.579 657.448 297.624 657.448 381.568C657.448 454.774 638.099 511.51 598.67 550.959L598.671 550.96C559.935 590.4 505.247 609.8 435.36 609.8C396.54 609.8 368.918 612.886 352.004 618.741L351.948 618.76L351.892 618.778C336.243 623.786 326.663 633.219 322.402 647.154C318.499 661.519 316.456 683.145 316.456 712.32V811.648C316.456 835.345 310.255 854.022 296.993 866.716C283.772 879.37 264.387 885.256 239.776 885.256C215.736 885.256 196.039 879.234 181.242 866.657C166.194 853.866 159 835.235 159 811.648V374.4C159 297.102 179.372 238.227 220.974 198.741C262.653 158.498 331.846 139 427.168 139ZM418.976 266.76C379.737 266.76 353.315 273.913 338.334 286.997C324.216 299.921 316.456 323.058 316.456 358.016C316.456 383.362 315.771 411.087 314.403 441.187C313.634 458.11 312.539 473.446 311.117 487.188C310.843 489.841 312.281 492.381 314.935 493.936C317.575 495.482 320.665 495.592 323.028 494.133C331.211 488.23 341.719 483.961 354.328 481.151C367.866 477.605 385.372 475.896 406.688 475.896C435.793 475.895 458.457 473.522 474.886 468.936C490.774 463.83 501.503 454.781 507.646 441.882L507.687 441.796L507.73 441.712C514.69 428.425 518.424 408.553 518.424 381.568C518.424 345.574 513.972 320.343 505.716 305.102L505.657 304.994L505.604 304.884C497.916 288.866 486.968 279.043 472.816 274.735L472.688 274.696L472.563 274.651C458.253 269.447 440.437 266.76 418.976 266.76Z" stroke="black" stroke-width="10"/>
</g>
<defs>
<filter id="filter0_d_32_147" x="151" y="133" width="514.448" height="762.256" filterUnits="userSpaceOnUse" color-interpolation-filters="sRGB">
<feFlood flood-opacity="0" result="BackgroundImageFix"/>
<feColorMatrix in="SourceAlpha" type="matrix" values="0 0 0 0 0 0 0 0 0 0 0 0 0 0 0 0 0 0 127 0" result="hardAlpha"/>
<feOffset dy="2"/>
<feGaussianBlur stdDeviation="1.5"/>
<feComposite in2="hardAlpha" operator="out"/>
<feColorMatrix type="matrix" values="0 0 0 0 0 0 0 0 0 0 0 0 0 0 0 0 0 0 0.25 0"/>
<feBlend mode="normal" in2="BackgroundImageFix" result="effect1_dropShadow_32_147"/>
<feBlend mode="normal" in="SourceGraphic" in2="effect1_dropShadow_32_147" result="shape"/>
</filter>
</defs>
</svg>
