<svg width="64" height="64" viewBox="0 0 64 64" fill="none" xmlns="http://www.w3.org/2000/svg">
<rect width="64" height="64" rx="10" fill="#E4E4E4"/>
<g filter="url(#filter0_d_29_25)">
<mask id="path-2-outside-1_29_25" maskUnits="userSpaceOnUse" x="17" y="7" width="32" height="49" fill="black">
<rect fill="white" x="17" y="7" width="32" height="49"/>
<path d="M26.9415 50.224C26.9415 53.0827 25.4482 54.512 22.4615 54.512C21.0108 54.512 19.8588 54.1493 19.0055 53.424C18.1522 52.6987 17.7255 51.632 17.7255 50.224V22.896C17.7255 18.1173 18.9842 14.5333 21.5015 12.144C24.0188 9.712 28.2428 8.496 34.1735 8.496C38.5682 8.496 42.0028 9.66933 44.4775 12.016C46.9948 14.3627 48.2535 18.1387 48.2535 23.344C48.2535 27.8667 47.0588 31.3227 44.6695 33.712C42.3228 36.1013 38.9948 37.296 34.6855 37.296C32.2535 37.296 30.4828 37.488 29.3735 37.872C28.3068 38.2133 27.6242 38.8747 27.3255 39.856C27.0695 40.7947 26.9415 42.1813 26.9415 44.016V50.224ZM26.3655 31.728C26.8775 31.3013 27.3682 30.9387 27.8375 30.64C28.3068 30.2987 28.9255 30.0427 29.6935 29.872C30.5042 29.6587 31.5708 29.552 32.8935 29.552C34.7282 29.552 36.1788 29.4027 37.2455 29.104C38.3122 28.7627 39.0588 28.144 39.4855 27.248C39.9548 26.352 40.1895 25.0507 40.1895 23.344C40.1895 21.0827 39.9122 19.44 39.3575 18.416C38.8455 17.3493 38.0988 16.6667 37.1175 16.368C36.1788 16.0267 35.0268 15.856 33.6615 15.856C31.1868 15.856 29.4375 16.304 28.4135 17.2C27.4322 18.096 26.9415 19.6533 26.9415 21.872C26.9415 23.4507 26.8988 25.1787 26.8135 27.056C26.7282 28.9333 26.5788 30.4907 26.3655 31.728Z"/>
</mask>
<path d="M26.9415 50.224C26.9415 53.0827 25.4482 54.512 22.4615 54.512C21.0108 54.512 19.8588 54.1493 19.0055 53.424C18.1522 52.6987 17.7255 51.632 17.7255 50.224V22.896C17.7255 18.1173 18.9842 14.5333 21.5015 12.144C24.0188 9.712 28.2428 8.496 34.1735 8.496C38.5682 8.496 42.0028 9.66933 44.4775 12.016C46.9948 14.3627 48.2535 18.1387 48.2535 23.344C48.2535 27.8667 47.0588 31.3227 44.6695 33.712C42.3228 36.1013 38.9948 37.296 34.6855 37.296C32.2535 37.296 30.4828 37.488 29.3735 37.872C28.3068 38.2133 27.6242 38.8747 27.3255 39.856C27.0695 40.7947 26.9415 42.1813 26.9415 44.016V50.224ZM26.3655 31.728C26.8775 31.3013 27.3682 30.9387 27.8375 30.64C28.3068 30.2987 28.9255 30.0427 29.6935 29.872C30.5042 29.6587 31.5708 29.552 32.8935 29.552C34.7282 29.552 36.1788 29.4027 37.2455 29.104C38.3122 28.7627 39.0588 28.144 39.4855 27.248C39.9548 26.352 40.1895 25.0507 40.1895 23.344C40.1895 21.0827 39.9122 19.44 39.3575 18.416C38.8455 17.3493 38.0988 16.6667 37.1175 16.368C36.1788 16.0267 35.0268 15.856 33.6615 15.856C31.1868 15.856 29.4375 16.304 28.4135 17.2C27.4322 18.096 26.9415 19.6533 26.9415 21.872C26.9415 23.4507 26.8988 25.1787 26.8135 27.056C26.7282 28.9333 26.5788 30.4907 26.3655 31.728Z" fill="#009789"/>
<path d="M19.0055 53.424L19.3293 53.043V53.043L19.0055 53.424ZM21.5015 12.144L21.8457 12.5067L21.8489 12.5036L21.5015 12.144ZM44.4775 12.016L44.1334 12.3788L44.1366 12.3817L44.4775 12.016ZM44.6695 33.712L44.3159 33.3584L44.3128 33.3616L44.6695 33.712ZM29.3735 37.872L29.5259 38.3483L29.5371 38.3445L29.3735 37.872ZM27.3255 39.856L26.8472 39.7104L26.845 39.7174L26.8431 39.7244L27.3255 39.856ZM26.3655 31.728L25.8728 31.643L25.6419 32.9818L26.6856 32.1121L26.3655 31.728ZM27.8375 30.64L28.1059 31.0618L28.119 31.0535L28.1316 31.0444L27.8375 30.64ZM29.6935 29.872L29.802 30.3601L29.8114 30.358L29.8207 30.3555L29.6935 29.872ZM37.2455 29.104L37.3803 29.5855L37.3892 29.583L37.3979 29.5802L37.2455 29.104ZM39.4855 27.248L39.0426 27.016L39.0382 27.0244L39.0341 27.033L39.4855 27.248ZM39.3575 18.416L38.9067 18.6324L38.912 18.6434L38.9179 18.6541L39.3575 18.416ZM37.1175 16.368L36.9466 16.8379L36.9592 16.8425L36.9719 16.8463L37.1175 16.368ZM28.4135 17.2L28.0842 16.8236L28.0764 16.8308L28.4135 17.2ZM26.8135 27.056L26.314 27.0333V27.0333L26.8135 27.056ZM26.9415 50.224H26.4415C26.4415 51.5705 26.0909 52.49 25.4758 53.0788C24.8565 53.6715 23.8831 54.012 22.4615 54.012V54.512V55.012C24.0266 55.012 25.2931 54.6378 26.1672 53.8012C27.0454 52.9607 27.4415 51.7361 27.4415 50.224H26.9415ZM22.4615 54.512V54.012C21.0938 54.012 20.0683 53.6712 19.3293 53.043L19.0055 53.424L18.6817 53.805C19.6493 54.6275 20.9279 55.012 22.4615 55.012V54.512ZM19.0055 53.424L19.3293 53.043C18.6155 52.4363 18.2255 51.5262 18.2255 50.224H17.7255H17.2255C17.2255 51.7378 17.6888 52.961 18.6817 53.805L19.0055 53.424ZM17.7255 50.224H18.2255V22.896H17.7255H17.2255V50.224H17.7255ZM17.7255 22.896H18.2255C18.2255 18.2013 19.4608 14.7703 21.8457 12.5066L21.5015 12.144L21.1573 11.7813C18.5076 14.2963 17.2255 18.0334 17.2255 22.896H17.7255ZM21.5015 12.144L21.8489 12.5036C24.2263 10.2068 28.2884 8.996 34.1735 8.996V8.496V7.996C28.1973 7.996 23.8113 9.21723 21.1541 11.7844L21.5015 12.144ZM34.1735 8.496V8.996C38.4785 8.996 41.7762 10.1435 44.1335 12.3788L44.4775 12.016L44.8215 11.6532C42.2295 9.19519 38.6579 7.996 34.1735 7.996V8.496ZM44.4775 12.016L44.1366 12.3817C46.5102 14.5945 47.7535 18.2066 47.7535 23.344H48.2535H48.7535C48.7535 18.0708 47.4794 14.1309 44.8184 11.6503L44.4775 12.016ZM48.2535 23.344H47.7535C47.7535 27.7804 46.5832 31.0912 44.3159 33.3584L44.6695 33.712L45.0231 34.0656C47.5345 31.5541 48.7535 27.953 48.7535 23.344H48.2535ZM44.6695 33.712L44.3128 33.3616C42.0851 35.6299 38.901 36.796 34.6855 36.796V37.296V37.796C39.0886 37.796 42.5606 36.5728 45.0262 34.0624L44.6695 33.712ZM34.6855 37.296V36.796C32.2443 36.796 30.4028 36.9866 29.2099 37.3995L29.3735 37.872L29.5371 38.3445C30.5629 37.9894 32.2627 37.796 34.6855 37.796V37.296ZM29.3735 37.872L29.2211 37.3958C28.015 37.7818 27.1986 38.5559 26.8472 39.7104L27.3255 39.856L27.8038 40.0016C28.0498 39.1935 28.5987 38.6449 29.5259 38.3482L29.3735 37.872ZM27.3255 39.856L26.8431 39.7244C26.5693 40.7285 26.4415 42.1688 26.4415 44.016H26.9415H27.4415C27.4415 42.1939 27.5697 40.8608 27.8079 39.9876L27.3255 39.856ZM26.9415 44.016H26.4415V50.224H26.9415H27.4415V44.016H26.9415ZM26.3655 31.728L26.6856 32.1121C27.1843 31.6965 27.6577 31.3471 28.1059 31.0618L27.8375 30.64L27.5691 30.2182C27.0786 30.5303 26.5707 30.9061 26.0454 31.3439L26.3655 31.728ZM27.8375 30.64L28.1316 31.0444C28.5295 30.755 29.0785 30.5209 29.802 30.3601L29.6935 29.872L29.585 29.3839C28.7725 29.5645 28.0842 29.8423 27.5434 30.2356L27.8375 30.64ZM29.6935 29.872L29.8207 30.3555C30.5731 30.1575 31.5921 30.052 32.8935 30.052V29.552V29.052C31.5496 29.052 30.4352 29.1598 29.5663 29.3885L29.6935 29.872ZM32.8935 29.552V30.052C34.7481 30.052 36.2505 29.9018 37.3803 29.5855L37.2455 29.104L37.1107 28.6225C36.1072 28.9035 34.7082 29.052 32.8935 29.052V29.552ZM37.2455 29.104L37.3979 29.5802C38.5774 29.2028 39.443 28.5002 39.9369 27.463L39.4855 27.248L39.0341 27.033C38.6747 27.7878 38.0469 28.3226 37.0931 28.6278L37.2455 29.104ZM39.4855 27.248L39.9284 27.48C40.4527 26.4791 40.6895 25.0828 40.6895 23.344H40.1895H39.6895C39.6895 25.0185 39.457 26.2249 39.0426 27.016L39.4855 27.248ZM40.1895 23.344H40.6895C40.6895 21.064 40.4137 19.3161 39.7971 18.1779L39.3575 18.416L38.9179 18.6541C39.4107 19.5639 39.6895 21.1013 39.6895 23.344H40.1895ZM39.3575 18.416L39.8083 18.1996C39.2459 17.028 38.3993 16.2355 37.2631 15.8897L37.1175 16.368L36.9719 16.8463C37.7983 17.0979 38.4451 17.6706 38.9067 18.6324L39.3575 18.416ZM37.1175 16.368L37.2884 15.8981C36.2789 15.531 35.0652 15.356 33.6615 15.356V15.856V16.356C34.9885 16.356 36.0788 16.5223 36.9466 16.8379L37.1175 16.368ZM33.6615 15.856V15.356C31.1542 15.356 29.2491 15.8044 28.0842 16.8237L28.4135 17.2L28.7428 17.5763C29.6259 16.8036 31.2195 16.356 33.6615 16.356V15.856ZM28.4135 17.2L28.0764 16.8308C26.9395 17.8688 26.4415 19.603 26.4415 21.872H26.9415H27.4415C27.4415 19.7037 27.9248 18.3232 28.7506 17.5692L28.4135 17.2ZM26.9415 21.872H26.4415C26.4415 23.4418 26.3991 25.1622 26.314 27.0333L26.8135 27.056L27.313 27.0787C27.3986 25.1952 27.4415 23.4595 27.4415 21.872H26.9415ZM26.8135 27.056L26.314 27.0333C26.2292 28.8989 26.0813 30.4337 25.8728 31.643L26.3655 31.728L26.8582 31.813C27.0764 30.5476 27.2271 28.9678 27.313 27.0787L26.8135 27.056Z" fill="black" mask="url(#path-2-outside-1_29_25)"/>
</g>
<defs>
<filter id="filter0_d_29_25" x="14.2255" y="6.99597" width="37.528" height="53.0161" filterUnits="userSpaceOnUse" color-interpolation-filters="sRGB">
<feFlood flood-opacity="0" result="BackgroundImageFix"/>
<feColorMatrix in="SourceAlpha" type="matrix" values="0 0 0 0 0 0 0 0 0 0 0 0 0 0 0 0 0 0 127 0" result="hardAlpha"/>
<feOffset dy="2"/>
<feGaussianBlur stdDeviation="1.5"/>
<feComposite in2="hardAlpha" operator="out"/>
<feColorMatrix type="matrix" values="0 0 0 0 0 0 0 0 0 0 0 0 0 0 0 0 0 0 0.25 0"/>
<feBlend mode="normal" in2="BackgroundImageFix" result="effect1_dropShadow_29_25"/>
<feBlend mode="normal" in="SourceGraphic" in2="effect1_dropShadow_29_25" result="shape"/>
</filter>
</defs>
</svg>
