<svg width="560" height="125" viewBox="0 0 560 125" fill="none" xmlns="http://www.w3.org/2000/svg">
<path d="M147.44 58.64C147.44 60.4267 146.507 61.32 144.64 61.32C143.733 61.32 143.013 61.0933 142.48 60.64C141.947 60.1867 141.68 59.52 141.68 58.64V41.56C141.68 38.5733 142.467 36.3333 144.04 34.84C145.613 33.32 148.253 32.56 151.96 32.56C154.707 32.56 156.853 33.2933 158.4 34.76C159.973 36.2267 160.76 38.5867 160.76 41.84C160.76 44.6667 160.013 46.8267 158.52 48.32C157.053 49.8133 154.973 50.56 152.28 50.56C150.76 50.56 149.653 50.68 148.96 50.92C148.293 51.1333 147.867 51.5467 147.68 52.16C147.52 52.7467 147.44 53.6133 147.44 54.76V58.64ZM147.08 47.08C147.4 46.8133 147.707 46.5867 148 46.4C148.293 46.1867 148.68 46.0267 149.16 45.92C149.667 45.7867 150.333 45.72 151.16 45.72C152.307 45.72 153.213 45.6267 153.88 45.44C154.547 45.2267 155.013 44.84 155.28 44.28C155.573 43.72 155.72 42.9067 155.72 41.84C155.72 40.4267 155.547 39.4 155.2 38.76C154.88 38.0933 154.413 37.6667 153.8 37.48C153.213 37.2667 152.493 37.16 151.64 37.16C150.093 37.16 149 37.44 148.36 38C147.747 38.56 147.44 39.5333 147.44 40.92C147.44 41.9067 147.413 42.9867 147.36 44.16C147.307 45.3333 147.213 46.3067 147.08 47.08ZM170.29 58.64C170.29 60.4267 169.356 61.32 167.49 61.32C166.583 61.32 165.863 61.0933 165.33 60.64C164.796 60.1867 164.53 59.52 164.53 58.64V33.64C164.53 32.68 164.743 31.92 165.17 31.36C165.623 30.8 166.37 30.52 167.41 30.52C168.45 30.52 169.183 30.8 169.61 31.36C170.063 31.92 170.29 32.68 170.29 33.64V58.64ZM183.444 61.32C181.684 61.32 180.137 60.96 178.804 60.24C177.471 59.52 176.431 58.5067 175.684 57.2C174.964 55.8933 174.604 54.3733 174.604 52.64V43.28C174.604 41.4667 175.564 40.56 177.484 40.56C179.404 40.56 180.364 41.4667 180.364 43.28V52.56C180.364 53.8133 180.631 54.7867 181.164 55.48C181.697 56.1733 182.457 56.52 183.444 56.52C184.431 56.52 185.191 56.1733 185.724 55.48C186.257 54.7867 186.524 53.8133 186.524 52.56V43.28C186.524 41.4667 187.484 40.56 189.404 40.56C191.324 40.56 192.284 41.4667 192.284 43.28V52.64C192.284 54.3733 191.911 55.8933 191.164 57.2C190.444 58.5067 189.417 59.52 188.084 60.24C186.777 60.96 185.231 61.32 183.444 61.32ZM199.476 61.32C197.556 61.32 196.596 60.4133 196.596 58.6V43.44C196.596 41.6 197.556 40.68 199.476 40.68C200.436 40.68 201.13 40.8933 201.556 41.32C201.983 41.72 202.196 42.3867 202.196 43.32C202.676 42.44 203.356 41.7867 204.236 41.36C205.143 40.9067 206.196 40.68 207.396 40.68C209.69 40.68 210.836 41.68 210.836 43.68C210.836 44.4267 210.556 44.9867 209.996 45.36C209.436 45.7333 208.516 45.92 207.236 45.92C205.983 45.92 204.996 46.04 204.276 46.28C203.556 46.4933 203.05 46.9067 202.756 47.52C202.49 48.1067 202.356 48.96 202.356 50.08V58.6C202.356 60.4133 201.396 61.32 199.476 61.32ZM219.186 61.32C216.519 61.32 214.439 60.7067 212.946 59.48C211.453 58.2267 210.706 56.6133 210.706 54.64C210.706 52.32 211.679 50.64 213.626 49.6C215.599 48.56 218.479 48.2 222.266 48.52C222.079 47.2933 221.693 46.4667 221.106 46.04C220.519 45.5867 219.813 45.36 218.986 45.36C218.319 45.36 217.759 45.4 217.306 45.48C216.879 45.5333 216.479 45.6 216.106 45.68C215.733 45.76 215.279 45.8 214.746 45.8C214.026 45.8 213.453 45.68 213.026 45.44C212.599 45.1733 212.386 44.6533 212.386 43.88C212.386 42.7867 212.853 41.9867 213.786 41.48C214.746 40.9467 216.253 40.68 218.306 40.68C221.559 40.68 223.973 41.6133 225.546 43.48C227.119 45.32 227.906 47.7867 227.906 50.88C227.906 54.4533 227.253 57.0933 225.946 58.8C224.666 60.48 222.413 61.32 219.186 61.32ZM216.466 54.64C216.466 56.16 217.493 56.92 219.546 56.92C220.213 56.92 220.733 56.8 221.106 56.56C221.479 56.32 221.746 55.84 221.906 55.12C222.093 54.4 222.226 53.32 222.306 51.88C222.173 52.0133 221.999 52.1067 221.786 52.16C221.573 52.2133 221.359 52.24 221.146 52.24C219.386 52.24 218.159 52.4133 217.466 52.76C216.799 53.08 216.466 53.7067 216.466 54.64ZM234.634 70.2C232.688 70.2 231.714 69.16 231.714 67.08V51.32C231.714 47.6933 232.514 44.9867 234.114 43.2C235.714 41.4133 237.954 40.52 240.834 40.52C243.768 40.52 246.074 41.4533 247.754 43.32C249.461 45.1867 250.314 47.92 250.314 51.52C250.314 53.92 249.968 55.84 249.274 57.28C248.581 58.6933 247.621 59.72 246.394 60.36C245.168 61 243.754 61.32 242.154 61.32C240.768 61.32 239.621 61.12 238.714 60.72C237.834 60.32 237.141 59.7067 236.634 58.88C236.821 59.4133 236.954 59.9333 237.034 60.44C237.141 60.9467 237.208 61.5333 237.234 62.2C237.288 62.8667 237.314 63.72 237.314 64.76V67.08C237.314 69.16 236.421 70.2 234.634 70.2ZM241.114 56.64C242.234 56.64 243.101 56.2533 243.714 55.48C244.354 54.68 244.674 53.1867 244.674 51C244.674 48.8133 244.354 47.3333 243.714 46.56C243.101 45.76 242.234 45.36 241.114 45.36C239.994 45.36 239.114 45.76 238.474 46.56C237.861 47.3333 237.554 48.8133 237.554 51C237.554 53.1867 237.861 54.68 238.474 55.48C239.114 56.2533 239.994 56.64 241.114 56.64ZM257.015 61.32C255.095 61.32 254.135 60.4133 254.135 58.6V43.44C254.135 41.6 255.095 40.68 257.015 40.68C257.975 40.68 258.669 40.8933 259.095 41.32C259.522 41.72 259.735 42.3867 259.735 43.32C260.215 42.44 260.895 41.7867 261.775 41.36C262.682 40.9067 263.735 40.68 264.935 40.68C267.229 40.68 268.375 41.68 268.375 43.68C268.375 44.4267 268.095 44.9867 267.535 45.36C266.975 45.7333 266.055 45.92 264.775 45.92C263.522 45.92 262.535 46.04 261.815 46.28C261.095 46.4933 260.589 46.9067 260.295 47.52C260.029 48.1067 259.895 48.96 259.895 50.08V58.6C259.895 60.4133 258.935 61.32 257.015 61.32ZM272.525 37.24C271.538 37.24 270.712 36.92 270.045 36.28C269.378 35.64 269.045 34.8533 269.045 33.92C269.045 32.9333 269.378 32.12 270.045 31.48C270.712 30.84 271.538 30.52 272.525 30.52C273.538 30.52 274.365 30.84 275.005 31.48C275.672 32.12 276.005 32.9333 276.005 33.92C276.005 34.8533 275.672 35.64 275.005 36.28C274.365 36.92 273.538 37.24 272.525 37.24ZM275.405 58.64C275.405 60.4267 274.472 61.32 272.605 61.32C271.698 61.32 270.978 61.1067 270.445 60.68C269.912 60.2267 269.645 59.5467 269.645 58.64V43.4C269.645 42.5467 269.858 41.88 270.285 41.4C270.738 40.92 271.485 40.68 272.525 40.68C273.565 40.68 274.298 40.92 274.725 41.4C275.178 41.88 275.405 42.5467 275.405 43.4V58.64ZM282.562 61.32C280.642 61.32 279.682 60.4133 279.682 58.6V49C279.682 46.44 280.496 44.4133 282.122 42.92C283.776 41.4267 285.949 40.68 288.642 40.68C291.336 40.68 293.496 41.4267 295.122 42.92C296.776 44.4133 297.602 46.44 297.602 49V58.6C297.602 60.4133 296.642 61.32 294.722 61.32C292.802 61.32 291.842 60.4133 291.842 58.6V49.32C291.842 48.0667 291.562 47.12 291.002 46.48C290.442 45.8133 289.656 45.48 288.642 45.48C287.629 45.48 286.842 45.8133 286.282 46.48C285.722 47.12 285.442 48.0667 285.442 49.32V58.6C285.442 60.4133 284.482 61.32 282.562 61.32ZM310.208 61.32C307.728 61.32 305.888 60.7333 304.688 59.56C303.514 58.3867 302.928 56.5867 302.928 54.16V45.84H301.888C300.074 45.84 299.168 45.0267 299.168 43.4C299.168 41.8 300.074 41 301.888 41H302.928V36.68C302.928 35.8 303.194 35.08 303.728 34.52C304.288 33.96 305.008 33.68 305.888 33.68C306.741 33.68 307.421 33.9467 307.928 34.48C308.434 34.9867 308.688 35.6933 308.688 36.6V38.56C308.688 39.5467 308.528 40.36 308.208 41H312.008C313.821 41 314.728 41.8 314.728 43.4C314.728 45.0267 313.821 45.84 312.008 45.84H308.688V54.28C308.688 55.08 308.781 55.6533 308.967 56C309.154 56.32 309.461 56.48 309.888 56.48C310.448 56.48 310.861 56.44 311.128 56.36C311.421 56.2533 311.781 56.2 312.208 56.2C312.928 56.2 313.501 56.3333 313.928 56.6C314.354 56.84 314.568 57.3467 314.568 58.12C314.568 59.2133 314.221 60.0267 313.528 60.56C312.834 61.0667 311.728 61.32 310.208 61.32Z" fill="white"/>
<path d="M68.256 91.336C68.256 95.624 66.016 97.768 61.536 97.768C59.36 97.768 57.632 97.224 56.352 96.136C55.072 95.048 54.432 93.448 54.432 91.336V50.344C54.432 43.176 56.32 37.8 60.096 34.216C63.872 30.568 70.208 28.744 79.104 28.744C85.696 28.744 90.848 30.504 94.56 34.024C98.336 37.544 100.224 43.208 100.224 51.016C100.224 57.8 98.432 62.984 94.848 66.568C91.328 70.152 86.336 71.944 79.872 71.944C76.224 71.944 73.568 72.232 71.904 72.808C70.304 73.32 69.28 74.312 68.832 75.784C68.448 77.192 68.256 79.272 68.256 82.024V91.336ZM67.392 63.592C68.16 62.952 68.896 62.408 69.6 61.96C70.304 61.448 71.232 61.064 72.384 60.808C73.6 60.488 75.2 60.328 77.184 60.328C79.936 60.328 82.112 60.104 83.712 59.656C85.312 59.144 86.432 58.216 87.072 56.872C87.776 55.528 88.128 53.576 88.128 51.016C88.128 47.624 87.712 45.16 86.88 43.624C86.112 42.024 84.992 41 83.52 40.552C82.112 40.04 80.384 39.784 78.336 39.784C74.624 39.784 72 40.456 70.464 41.8C68.992 43.144 68.256 45.48 68.256 48.808C68.256 51.176 68.192 53.768 68.064 56.584C67.936 59.4 67.712 61.736 67.392 63.592Z" fill="#009789"/>
<path d="M145.552 93.24C144.016 93.24 142.752 93.024 141.76 92.592C140.784 92.144 140.08 91.56 139.648 90.84C139.232 90.104 139.088 89.328 139.216 88.512C139.232 88.384 139.288 88.272 139.384 88.176C139.496 88.064 139.624 88.008 139.768 88.008H142.384C142.592 88.008 142.744 88.056 142.84 88.152C142.936 88.232 143.024 88.336 143.104 88.464C143.152 88.736 143.272 89 143.464 89.256C143.672 89.512 143.968 89.728 144.352 89.904C144.736 90.064 145.224 90.144 145.816 90.144C146.872 90.144 147.704 89.976 148.312 89.64C148.92 89.304 149.288 88.848 149.416 88.272C149.512 87.856 149.448 87.52 149.224 87.264C149 87.008 148.6 86.776 148.024 86.568C147.464 86.36 146.72 86.136 145.792 85.896C144.64 85.64 143.696 85.288 142.96 84.84C142.224 84.376 141.712 83.8 141.424 83.112C141.152 82.424 141.12 81.6 141.328 80.64C141.632 79.2 142.4 78.064 143.632 77.232C144.864 76.384 146.464 75.96 148.432 75.96C149.456 75.96 150.352 76.104 151.12 76.392C151.904 76.68 152.552 77.056 153.064 77.52C153.592 77.984 153.968 78.48 154.192 79.008C154.416 79.536 154.488 80.048 154.408 80.544C154.392 80.672 154.328 80.792 154.216 80.904C154.12 81 154 81.048 153.856 81.048H151.12C150.96 81.048 150.824 81.016 150.712 80.952C150.6 80.888 150.512 80.776 150.448 80.616C150.448 80.2 150.24 79.84 149.824 79.536C149.424 79.216 148.88 79.056 148.192 79.056C147.408 79.056 146.744 79.2 146.2 79.488C145.656 79.776 145.312 80.216 145.168 80.808C145.088 81.192 145.136 81.52 145.312 81.792C145.504 82.048 145.848 82.28 146.344 82.488C146.856 82.68 147.552 82.896 148.432 83.136C149.776 83.424 150.84 83.792 151.624 84.24C152.408 84.688 152.936 85.248 153.208 85.92C153.496 86.592 153.536 87.408 153.328 88.368C152.992 89.968 152.16 91.184 150.832 92.016C149.504 92.832 147.744 93.24 145.552 93.24ZM155.497 93C155.337 93 155.209 92.944 155.113 92.832C155.017 92.72 154.985 92.576 155.017 92.4L158.353 76.8C158.385 76.624 158.465 76.48 158.593 76.368C158.737 76.256 158.889 76.2 159.049 76.2H161.737C161.897 76.2 162.025 76.256 162.121 76.368C162.217 76.48 162.249 76.624 162.217 76.8L159.433 89.784H166.873C167.049 89.784 167.177 89.84 167.257 89.952C167.353 90.064 167.385 90.208 167.353 90.384L166.921 92.4C166.889 92.576 166.809 92.72 166.681 92.832C166.553 92.944 166.401 93 166.225 93H155.497ZM169.489 93C169.313 93 169.177 92.944 169.081 92.832C169.001 92.72 168.977 92.576 169.009 92.4L172.345 76.8C172.377 76.624 172.457 76.48 172.585 76.368C172.729 76.256 172.881 76.2 173.041 76.2H175.777C175.937 76.2 176.065 76.256 176.161 76.368C176.257 76.48 176.289 76.624 176.257 76.8L172.921 92.4C172.889 92.576 172.801 92.72 172.657 92.832C172.529 92.944 172.385 93 172.225 93H169.489ZM183.302 93.24C182.214 93.24 181.246 93.104 180.398 92.832C179.55 92.544 178.854 92.12 178.31 91.56C177.766 91 177.39 90.32 177.182 89.52C176.974 88.704 176.958 87.776 177.134 86.736C177.246 86.08 177.382 85.376 177.542 84.624C177.718 83.872 177.886 83.152 178.046 82.464C178.398 81.088 178.926 79.92 179.63 78.96C180.35 77.984 181.262 77.24 182.366 76.728C183.486 76.216 184.806 75.96 186.326 75.96C187.366 75.96 188.31 76.096 189.158 76.368C190.022 76.624 190.742 77.008 191.318 77.52C191.91 78.016 192.326 78.616 192.566 79.32C192.822 80.008 192.87 80.784 192.71 81.648C192.694 81.792 192.63 81.912 192.518 82.008C192.422 82.104 192.302 82.152 192.158 82.152H189.374C189.182 82.152 189.03 82.104 188.918 82.008C188.822 81.912 188.766 81.752 188.75 81.528C188.798 80.616 188.566 79.976 188.054 79.608C187.558 79.24 186.894 79.056 186.062 79.056C185.07 79.056 184.214 79.328 183.494 79.872C182.774 80.416 182.262 81.32 181.958 82.584C181.622 83.896 181.334 85.24 181.094 86.616C180.87 87.88 180.982 88.784 181.43 89.328C181.878 89.872 182.59 90.144 183.566 90.144C184.398 90.144 185.142 89.968 185.798 89.616C186.47 89.248 187.014 88.6 187.43 87.672C187.558 87.432 187.678 87.272 187.79 87.192C187.918 87.096 188.078 87.048 188.27 87.048H191.03C191.174 87.048 191.286 87.096 191.366 87.192C191.462 87.288 191.494 87.408 191.462 87.552C191.238 88.384 190.902 89.152 190.454 89.856C190.006 90.544 189.438 91.144 188.75 91.656C188.078 92.168 187.286 92.56 186.374 92.832C185.478 93.104 184.454 93.24 183.302 93.24ZM193.559 93C193.399 93 193.271 92.944 193.175 92.832C193.079 92.72 193.047 92.576 193.079 92.4L196.391 76.8C196.423 76.624 196.511 76.48 196.655 76.368C196.799 76.256 196.951 76.2 197.111 76.2H207.983C208.159 76.2 208.287 76.256 208.367 76.368C208.463 76.48 208.495 76.624 208.463 76.8L208.055 78.72C208.023 78.88 207.935 79.016 207.791 79.128C207.663 79.24 207.511 79.296 207.335 79.296H199.559L198.743 83.064H205.991C206.167 83.064 206.295 83.12 206.375 83.232C206.471 83.344 206.503 83.488 206.471 83.664L206.087 85.44C206.055 85.6 205.967 85.736 205.823 85.848C205.695 85.96 205.543 86.016 205.367 86.016H198.143L197.303 89.904H205.271C205.447 89.904 205.575 89.96 205.655 90.072C205.751 90.184 205.783 90.328 205.751 90.504L205.343 92.4C205.311 92.576 205.223 92.72 205.079 92.832C204.951 92.944 204.799 93 204.623 93H193.559ZM208.989 93C208.813 93 208.685 92.944 208.605 92.832C208.525 92.72 208.501 92.576 208.533 92.4L211.821 76.8C211.853 76.624 211.941 76.48 212.085 76.368C212.229 76.256 212.389 76.2 212.565 76.2H218.925C220.925 76.2 222.397 76.664 223.341 77.592C224.301 78.504 224.597 79.824 224.229 81.552C223.989 82.72 223.501 83.696 222.765 84.48C222.045 85.264 221.173 85.848 220.149 86.232L222.261 92.232C222.277 92.28 222.285 92.32 222.285 92.352C222.301 92.384 222.301 92.432 222.285 92.496C222.253 92.624 222.173 92.744 222.045 92.856C221.933 92.952 221.805 93 221.661 93H218.997C218.709 93 218.509 92.928 218.397 92.784C218.301 92.624 218.229 92.48 218.181 92.352L216.429 86.856H213.525L212.325 92.4C212.293 92.576 212.205 92.72 212.061 92.832C211.933 92.944 211.781 93 211.605 93H208.989ZM214.149 83.808H217.245C218.109 83.808 218.797 83.608 219.309 83.208C219.821 82.808 220.157 82.248 220.317 81.528C220.461 80.808 220.365 80.24 220.029 79.824C219.709 79.408 219.109 79.2 218.229 79.2H215.133L214.149 83.808Z" fill="white"/>
</svg>
