<svg width="1024" height="1024" viewBox="0 0 1024 1024" fill="none" xmlns="http://www.w3.org/2000/svg">
<g filter="url(#filter0_d_32_151)">
<path d="M431.064 803.583C431.064 849.322 407.171 872.191 359.384 872.191C336.173 872.191 317.741 866.388 304.088 854.783C290.435 843.178 283.608 826.111 283.608 803.583V366.335C283.608 289.876 303.747 232.532 344.024 194.303C384.301 155.391 451.885 135.935 546.776 135.935C617.091 135.935 672.046 154.708 711.64 192.255C751.918 229.802 772.056 290.218 772.056 373.503C772.056 445.866 752.942 501.162 714.712 539.391C677.166 577.62 623.918 596.735 554.968 596.735C516.056 596.735 487.725 599.807 469.976 605.951C452.91 611.412 441.987 621.994 437.208 637.695C433.112 652.714 431.064 674.9 431.064 704.255V803.583ZM425.752 478.608C424.719 488.586 436.937 495.625 445.4 490.239C452.91 484.778 462.808 480.682 475.096 477.951C488.067 474.538 505.133 472.831 526.296 472.831C555.651 472.831 578.861 470.442 595.928 465.663C612.995 460.202 624.941 450.303 631.768 435.967C639.277 421.631 643.032 400.81 643.032 373.503C643.032 337.322 638.595 311.039 629.72 294.655C621.528 277.588 609.581 266.666 593.88 261.887C578.862 256.426 560.43 253.695 538.584 253.695C498.99 253.695 471 260.863 454.616 275.199C438.915 289.535 431.064 314.452 431.064 349.951C431.064 375.21 430.382 402.858 429.016 432.895C428.25 449.743 427.162 464.981 425.752 478.608Z" fill="#009789"/>
<path d="M546.776 130.935C617.988 130.935 674.312 149.967 715.081 188.626H715.08C756.773 227.514 777.056 289.559 777.056 373.503C777.056 446.709 757.707 503.445 718.278 542.894L718.279 542.895C679.543 582.335 624.856 601.735 554.969 601.735C516.148 601.735 488.526 604.821 471.612 610.676L471.556 610.695L471.5 610.713C455.851 615.721 446.271 625.154 442.01 639.089C438.107 653.454 436.064 675.08 436.064 704.255V803.583C436.064 827.28 429.863 845.957 416.601 858.651C403.38 871.305 383.995 877.191 359.385 877.191C335.345 877.191 315.647 871.169 300.85 858.592C285.802 845.801 278.608 827.17 278.608 803.583V366.335C278.608 289.038 298.981 230.162 340.582 190.676C382.262 150.433 451.454 130.935 546.776 130.935ZM538.584 258.695C499.345 258.695 472.923 265.848 457.942 278.932C443.825 291.856 436.064 314.993 436.064 349.951C436.064 375.298 435.38 403.023 434.011 433.122C433.242 450.045 432.147 465.381 430.725 479.123C430.451 481.776 431.889 484.316 434.543 485.871C437.183 487.417 440.273 487.527 442.636 486.068C450.819 480.165 461.327 475.896 473.936 473.086C487.474 469.54 504.98 467.831 526.297 467.831C555.401 467.831 578.066 465.457 594.494 460.871C610.382 455.765 621.111 446.716 627.254 433.817L627.295 433.731L627.339 433.647C634.298 420.36 638.032 400.488 638.032 373.503C638.032 337.509 633.58 312.279 625.324 297.037L625.265 296.929L625.213 296.819C617.524 280.801 606.576 270.978 592.425 266.67L592.297 266.631L592.172 266.586C577.861 261.383 560.045 258.695 538.584 258.695Z" stroke="black" stroke-width="10"/>
</g>
<defs>
<filter id="filter0_d_32_151" x="270.608" y="124.935" width="514.448" height="762.256" filterUnits="userSpaceOnUse" color-interpolation-filters="sRGB">
<feFlood flood-opacity="0" result="BackgroundImageFix"/>
<feColorMatrix in="SourceAlpha" type="matrix" values="0 0 0 0 0 0 0 0 0 0 0 0 0 0 0 0 0 0 127 0" result="hardAlpha"/>
<feOffset dy="2"/>
<feGaussianBlur stdDeviation="1.5"/>
<feComposite in2="hardAlpha" operator="out"/>
<feColorMatrix type="matrix" values="0 0 0 0 0 0 0 0 0 0 0 0 0 0 0 0 0 0 0.25 0"/>
<feBlend mode="normal" in2="BackgroundImageFix" result="effect1_dropShadow_32_151"/>
<feBlend mode="normal" in="SourceGraphic" in2="effect1_dropShadow_32_151" result="shape"/>
</filter>
</defs>
</svg>
