<svg width="480" height="480" viewBox="0 0 480 480" fill="none" xmlns="http://www.w3.org/2000/svg">
<path d="M112.754 159.224C112.754 162.083 111.261 163.512 108.274 163.512C106.823 163.512 105.671 163.149 104.818 162.424C103.965 161.699 103.538 160.632 103.538 159.224V131.896C103.538 127.117 104.797 123.533 107.314 121.144C109.831 118.712 114.055 117.496 119.986 117.496C124.381 117.496 127.815 118.669 130.29 121.016C132.807 123.363 134.066 127.139 134.066 132.344C134.066 136.867 132.871 140.323 130.482 142.712C128.135 145.101 124.807 146.296 120.498 146.296C118.066 146.296 116.295 146.488 115.186 146.872C114.119 147.213 113.437 147.875 113.138 148.856C112.882 149.795 112.754 151.181 112.754 153.016V159.224ZM112.178 140.728C112.69 140.301 113.181 139.939 113.65 139.64C114.119 139.299 114.738 139.043 115.506 138.872C116.317 138.659 117.383 138.552 118.706 138.552C120.541 138.552 121.991 138.403 123.058 138.104C124.125 137.763 124.871 137.144 125.298 136.248C125.767 135.352 126.002 134.051 126.002 132.344C126.002 130.083 125.725 128.44 125.17 127.416C124.658 126.349 123.911 125.667 122.93 125.368C121.991 125.027 120.839 124.856 119.474 124.856C116.999 124.856 115.25 125.304 114.226 126.2C113.245 127.096 112.754 128.653 112.754 130.872C112.754 132.451 112.711 134.179 112.626 136.056C112.541 137.933 112.391 139.491 112.178 140.728ZM149.314 159.224C149.314 162.083 147.82 163.512 144.834 163.512C143.383 163.512 142.231 163.149 141.378 162.424C140.524 161.699 140.098 160.632 140.098 159.224V119.224C140.098 117.688 140.439 116.472 141.122 115.576C141.847 114.68 143.042 114.232 144.706 114.232C146.37 114.232 147.543 114.68 148.226 115.576C148.951 116.472 149.314 117.688 149.314 119.224V159.224ZM170.361 163.512C167.545 163.512 165.07 162.936 162.937 161.784C160.803 160.632 159.139 159.011 157.945 156.92C156.793 154.829 156.217 152.397 156.217 149.624V134.648C156.217 131.747 157.753 130.296 160.825 130.296C163.897 130.296 165.433 131.747 165.433 134.648V149.496C165.433 151.501 165.859 153.059 166.713 154.168C167.566 155.277 168.782 155.832 170.361 155.832C171.939 155.832 173.155 155.277 174.009 154.168C174.862 153.059 175.289 151.501 175.289 149.496V134.648C175.289 131.747 176.825 130.296 179.897 130.296C182.969 130.296 184.505 131.747 184.505 134.648V149.624C184.505 152.397 183.907 154.829 182.713 156.92C181.561 159.011 179.918 160.632 177.785 161.784C175.694 162.936 173.219 163.512 170.361 163.512ZM196.012 163.512C192.94 163.512 191.404 162.061 191.404 159.16V134.904C191.404 131.96 192.94 130.488 196.012 130.488C197.548 130.488 198.657 130.829 199.34 131.512C200.023 132.152 200.364 133.219 200.364 134.712C201.132 133.304 202.22 132.259 203.628 131.576C205.079 130.851 206.764 130.488 208.684 130.488C212.353 130.488 214.188 132.088 214.188 135.288C214.188 136.483 213.74 137.379 212.844 137.976C211.948 138.573 210.476 138.872 208.428 138.872C206.423 138.872 204.844 139.064 203.692 139.448C202.54 139.789 201.729 140.451 201.26 141.432C200.833 142.371 200.62 143.736 200.62 145.528V159.16C200.62 162.061 199.084 163.512 196.012 163.512ZM227.548 163.512C223.281 163.512 219.953 162.531 217.564 160.568C215.174 158.563 213.98 155.981 213.98 152.824C213.98 149.112 215.537 146.424 218.652 144.76C221.809 143.096 226.417 142.52 232.476 143.032C232.177 141.069 231.558 139.747 230.62 139.064C229.681 138.339 228.55 137.976 227.228 137.976C226.161 137.976 225.265 138.04 224.54 138.168C223.857 138.253 223.217 138.36 222.62 138.488C222.022 138.616 221.297 138.68 220.444 138.68C219.292 138.68 218.374 138.488 217.692 138.104C217.009 137.677 216.668 136.845 216.668 135.608C216.668 133.859 217.414 132.579 218.908 131.768C220.444 130.915 222.854 130.488 226.14 130.488C231.345 130.488 235.206 131.981 237.724 134.968C240.241 137.912 241.5 141.859 241.5 146.808C241.5 152.525 240.454 156.749 238.364 159.48C236.316 162.168 232.71 163.512 227.548 163.512ZM223.196 152.824C223.196 155.256 224.838 156.472 228.124 156.472C229.19 156.472 230.022 156.28 230.62 155.896C231.217 155.512 231.644 154.744 231.9 153.592C232.198 152.44 232.412 150.712 232.54 148.408C232.326 148.621 232.049 148.771 231.708 148.856C231.366 148.941 231.025 148.984 230.684 148.984C227.868 148.984 225.905 149.261 224.796 149.816C223.729 150.328 223.196 151.331 223.196 152.824ZM252.265 177.72C249.15 177.72 247.593 176.056 247.593 172.728V147.512C247.593 141.709 248.873 137.379 251.433 134.52C253.993 131.661 257.577 130.232 262.185 130.232C266.878 130.232 270.569 131.725 273.257 134.712C275.988 137.699 277.353 142.072 277.353 147.832C277.353 151.672 276.798 154.744 275.689 157.048C274.58 159.309 273.044 160.952 271.081 161.976C269.118 163 266.857 163.512 264.297 163.512C262.078 163.512 260.244 163.192 258.793 162.552C257.385 161.912 256.276 160.931 255.465 159.608C255.764 160.461 255.977 161.293 256.105 162.104C256.276 162.915 256.382 163.853 256.425 164.92C256.51 165.987 256.553 167.352 256.553 169.016V172.728C256.553 176.056 255.124 177.72 252.265 177.72ZM262.633 156.024C264.425 156.024 265.812 155.405 266.793 154.168C267.817 152.888 268.329 150.499 268.329 147C268.329 143.501 267.817 141.133 266.793 139.896C265.812 138.616 264.425 137.976 262.633 137.976C260.841 137.976 259.433 138.616 258.409 139.896C257.428 141.133 256.937 143.501 256.937 147C256.937 150.499 257.428 152.888 258.409 154.168C259.433 155.405 260.841 156.024 262.633 156.024ZM288.075 163.512C285.003 163.512 283.467 162.061 283.467 159.16V134.904C283.467 131.96 285.003 130.488 288.075 130.488C289.611 130.488 290.72 130.829 291.403 131.512C292.085 132.152 292.427 133.219 292.427 134.712C293.195 133.304 294.283 132.259 295.691 131.576C297.141 130.851 298.827 130.488 300.747 130.488C304.416 130.488 306.251 132.088 306.251 135.288C306.251 136.483 305.803 137.379 304.907 137.976C304.011 138.573 302.539 138.872 300.491 138.872C298.485 138.872 296.907 139.064 295.755 139.448C294.603 139.789 293.792 140.451 293.323 141.432C292.896 142.371 292.683 143.736 292.683 145.528V159.16C292.683 162.061 291.147 163.512 288.075 163.512ZM312.89 124.984C311.311 124.984 309.989 124.472 308.922 123.448C307.855 122.424 307.322 121.165 307.322 119.672C307.322 118.093 307.855 116.792 308.922 115.768C309.989 114.744 311.311 114.232 312.89 114.232C314.511 114.232 315.834 114.744 316.858 115.768C317.925 116.792 318.458 118.093 318.458 119.672C318.458 121.165 317.925 122.424 316.858 123.448C315.834 124.472 314.511 124.984 312.89 124.984ZM317.498 159.224C317.498 162.083 316.005 163.512 313.018 163.512C311.567 163.512 310.415 163.171 309.562 162.488C308.709 161.763 308.282 160.675 308.282 159.224V134.84C308.282 133.475 308.623 132.408 309.306 131.64C310.031 130.872 311.226 130.488 312.89 130.488C314.554 130.488 315.727 130.872 316.41 131.64C317.135 132.408 317.498 133.475 317.498 134.84V159.224ZM328.95 163.512C325.878 163.512 324.342 162.061 324.342 159.16V143.8C324.342 139.704 325.643 136.461 328.246 134.072C330.891 131.683 334.368 130.488 338.678 130.488C342.987 130.488 346.443 131.683 349.046 134.072C351.691 136.461 353.014 139.704 353.014 143.8V159.16C353.014 162.061 351.478 163.512 348.406 163.512C345.334 163.512 343.798 162.061 343.798 159.16V144.312C343.798 142.307 343.35 140.792 342.454 139.768C341.558 138.701 340.299 138.168 338.678 138.168C337.056 138.168 335.798 138.701 334.902 139.768C334.006 140.792 333.558 142.307 333.558 144.312V159.16C333.558 162.061 332.022 163.512 328.95 163.512ZM373.182 163.512C369.214 163.512 366.27 162.573 364.35 160.696C362.473 158.819 361.534 155.939 361.534 152.056V138.744H359.87C356.969 138.744 355.518 137.443 355.518 134.84C355.518 132.28 356.969 131 359.87 131H361.534V124.088C361.534 122.68 361.961 121.528 362.814 120.632C363.71 119.736 364.862 119.288 366.27 119.288C367.635 119.288 368.723 119.715 369.534 120.568C370.345 121.379 370.75 122.509 370.75 123.96V127.096C370.75 128.675 370.494 129.976 369.982 131H376.062C378.963 131 380.414 132.28 380.414 134.84C380.414 137.443 378.963 138.744 376.062 138.744H370.75V152.248C370.75 153.528 370.899 154.445 371.198 155C371.497 155.512 371.987 155.768 372.67 155.768C373.566 155.768 374.227 155.704 374.654 155.576C375.123 155.405 375.699 155.32 376.382 155.32C377.534 155.32 378.451 155.533 379.134 155.96C379.817 156.344 380.158 157.155 380.158 158.392C380.158 160.141 379.603 161.443 378.494 162.296C377.385 163.107 375.614 163.512 373.182 163.512Z" fill="#009789"/>
<path d="M189.771 227.36C187.683 227.36 185.931 227.048 184.515 226.424C183.099 225.776 182.007 224.948 181.239 223.94C180.495 222.908 180.099 221.816 180.051 220.664C180.051 220.472 180.123 220.304 180.267 220.16C180.435 219.992 180.627 219.908 180.843 219.908H182.679C182.967 219.908 183.183 219.98 183.327 220.124C183.471 220.268 183.567 220.436 183.615 220.628C183.735 221.204 184.023 221.78 184.479 222.356C184.959 222.908 185.619 223.376 186.459 223.76C187.323 224.12 188.427 224.3 189.771 224.3C191.835 224.3 193.347 223.94 194.307 223.22C195.291 222.476 195.783 221.492 195.783 220.268C195.783 219.428 195.519 218.756 194.991 218.252C194.487 217.724 193.707 217.256 192.651 216.848C191.595 216.44 190.227 215.996 188.547 215.516C186.795 215.012 185.343 214.46 184.191 213.86C183.039 213.26 182.175 212.516 181.599 211.628C181.047 210.74 180.771 209.612 180.771 208.244C180.771 206.948 181.119 205.796 181.815 204.788C182.511 203.756 183.507 202.94 184.803 202.34C186.123 201.74 187.719 201.44 189.591 201.44C191.079 201.44 192.375 201.644 193.479 202.052C194.607 202.436 195.543 202.964 196.287 203.636C197.031 204.284 197.595 204.992 197.979 205.76C198.363 206.504 198.567 207.236 198.591 207.956C198.591 208.124 198.531 208.292 198.411 208.46C198.291 208.604 198.099 208.676 197.835 208.676H195.927C195.759 208.676 195.579 208.628 195.387 208.532C195.219 208.436 195.087 208.256 194.991 207.992C194.847 207.008 194.295 206.18 193.335 205.508C192.375 204.836 191.127 204.5 189.591 204.5C188.031 204.5 186.759 204.8 185.775 205.4C184.815 206 184.335 206.936 184.335 208.208C184.335 209.024 184.563 209.708 185.019 210.26C185.475 210.788 186.195 211.256 187.179 211.664C188.163 212.072 189.447 212.504 191.031 212.96C192.951 213.488 194.523 214.052 195.747 214.652C196.971 215.228 197.871 215.96 198.447 216.848C199.047 217.712 199.347 218.828 199.347 220.196C199.347 221.708 198.951 223.004 198.159 224.084C197.367 225.14 196.251 225.956 194.811 226.532C193.395 227.084 191.715 227.36 189.771 227.36ZM204.894 227C204.63 227 204.426 226.928 204.282 226.784C204.138 226.616 204.066 226.412 204.066 226.172V202.628C204.066 202.388 204.138 202.196 204.282 202.052C204.426 201.884 204.63 201.8 204.894 201.8H206.802C207.042 201.8 207.234 201.884 207.378 202.052C207.522 202.196 207.594 202.388 207.594 202.628V223.868H219.582C219.846 223.868 220.05 223.952 220.194 224.12C220.338 224.264 220.41 224.468 220.41 224.732V226.172C220.41 226.412 220.338 226.616 220.194 226.784C220.05 226.928 219.846 227 219.582 227H204.894ZM225.179 227C224.915 227 224.711 226.928 224.567 226.784C224.423 226.616 224.351 226.412 224.351 226.172V202.628C224.351 202.388 224.423 202.196 224.567 202.052C224.711 201.884 224.915 201.8 225.179 201.8H227.087C227.327 201.8 227.519 201.884 227.663 202.052C227.831 202.196 227.915 202.388 227.915 202.628V226.172C227.915 226.412 227.831 226.616 227.663 226.784C227.519 226.928 227.327 227 227.087 227H225.179ZM243.267 227.36C241.059 227.36 239.223 226.952 237.759 226.136C236.319 225.32 235.227 224.18 234.483 222.716C233.739 221.252 233.331 219.548 233.259 217.604C233.235 216.62 233.223 215.564 233.223 214.436C233.223 213.308 233.235 212.228 233.259 211.196C233.331 209.252 233.739 207.548 234.483 206.084C235.227 204.62 236.319 203.48 237.759 202.664C239.223 201.848 241.059 201.44 243.267 201.44C244.923 201.44 246.375 201.668 247.623 202.124C248.871 202.58 249.903 203.192 250.719 203.96C251.559 204.728 252.195 205.592 252.627 206.552C253.059 207.488 253.299 208.46 253.347 209.468C253.371 209.684 253.299 209.864 253.131 210.008C252.987 210.152 252.807 210.224 252.591 210.224H250.611C250.395 210.224 250.203 210.164 250.035 210.044C249.891 209.924 249.783 209.708 249.711 209.396C249.303 207.524 248.535 206.24 247.407 205.544C246.303 204.848 244.911 204.5 243.231 204.5C241.311 204.5 239.787 205.052 238.659 206.156C237.531 207.236 236.919 208.976 236.823 211.376C236.751 213.344 236.751 215.36 236.823 217.424C236.919 219.824 237.531 221.576 238.659 222.68C239.787 223.76 241.311 224.3 243.231 224.3C244.911 224.3 246.303 223.952 247.407 223.256C248.535 222.56 249.303 221.276 249.711 219.404C249.783 219.092 249.891 218.876 250.035 218.756C250.203 218.636 250.395 218.576 250.611 218.576H252.591C252.807 218.576 252.987 218.648 253.131 218.792C253.299 218.936 253.371 219.116 253.347 219.332C253.299 220.34 253.059 221.324 252.627 222.284C252.195 223.22 251.559 224.072 250.719 224.84C249.903 225.608 248.871 226.22 247.623 226.676C246.375 227.132 244.923 227.36 243.267 227.36ZM258.999 227C258.735 227 258.531 226.928 258.387 226.784C258.243 226.616 258.171 226.412 258.171 226.172V202.664C258.171 202.4 258.243 202.196 258.387 202.052C258.531 201.884 258.735 201.8 258.999 201.8H273.867C274.131 201.8 274.335 201.884 274.479 202.052C274.623 202.196 274.695 202.4 274.695 202.664V204.032C274.695 204.296 274.623 204.5 274.479 204.644C274.335 204.788 274.131 204.86 273.867 204.86H261.627V212.744H273.075C273.339 212.744 273.543 212.828 273.687 212.996C273.831 213.14 273.903 213.344 273.903 213.608V214.94C273.903 215.18 273.831 215.384 273.687 215.552C273.543 215.696 273.339 215.768 273.075 215.768H261.627V223.94H274.155C274.419 223.94 274.623 224.012 274.767 224.156C274.911 224.3 274.983 224.504 274.983 224.768V226.172C274.983 226.412 274.911 226.616 274.767 226.784C274.623 226.928 274.419 227 274.155 227H258.999ZM280.831 227C280.567 227 280.363 226.928 280.219 226.784C280.075 226.616 280.003 226.412 280.003 226.172V202.664C280.003 202.4 280.075 202.196 280.219 202.052C280.363 201.884 280.567 201.8 280.831 201.8H289.615C292.327 201.8 294.475 202.436 296.059 203.708C297.643 204.98 298.435 206.864 298.435 209.36C298.435 211.208 297.967 212.72 297.031 213.896C296.119 215.048 294.871 215.852 293.287 216.308L298.831 225.884C298.903 226.028 298.939 226.16 298.939 226.28C298.939 226.472 298.855 226.64 298.687 226.784C298.543 226.928 298.375 227 298.183 227H296.455C296.047 227 295.747 226.892 295.555 226.676C295.363 226.46 295.195 226.244 295.051 226.028L289.831 216.884H283.531V226.172C283.531 226.412 283.447 226.616 283.279 226.784C283.135 226.928 282.931 227 282.667 227H280.831ZM283.531 213.824H289.471C291.271 213.824 292.615 213.452 293.503 212.708C294.391 211.94 294.835 210.812 294.835 209.324C294.835 207.86 294.391 206.744 293.503 205.976C292.639 205.208 291.295 204.824 289.471 204.824H283.531V213.824Z" fill="black"/>
</svg>
